_______ Visit us at our Semi Public Bittorrent Community ________
  
http://p2pdl.com  _____________________________  http://p2pdl.com


The Guillotines 2012 BRRip 480p x264 AAC - VYTO


Original Title: Xue Di Zi
Genre: Action | Drama
Plot: An elite crime-fighting unit in the court of the Chinese emperor relies on'
flying swords to defeat their enemies.   
Director: Wai-keung Lau
Stars: Xiaoming Huang, Ethan Juan, Purba Rgyal.
Rated: R for strong violent content.

Info: 
http://www.imdb.com/title/tt1847713/


Format                         : MPEG-4
File size                      : 351 MiB
Duration                       : 1h 53mn
Overall bit rate               : 434 Kbps
Source                         : 720p BluRay DD5.1 x264-TayTO

Video
Format                         : AVC
Bit rate                       : 392 Kbps
Width                          : 720 pixels
Height                         : 304 pixels
Display aspect ratio           : 2.35:1
Frame rate mode                : Constant
Frame rate                     : 24.000 fps
Stream size                    : 316 MiB (90%)
Writing library                : x264 core 130 r2273

Audio
Format                         : AAC
Bit rate mode                  : Variable
Bit rate                       : 40.0 Kbps
Channel(s)                     : 2 channels
Channel positions              : Front: L R
Sampling rate                  : 48.0 KHz
Stream size                    : 32.3 MiB (9%)
Language                       : Chinese

Subtitle                       : Yes(English)
 
http://ultraimg.com/images/nsZgT.png 
http://ultraimg.com/images/LfpFl.png 
http://ultraimg.com/images/FBjV.png 
http://ultraimg.com/images/iJQvr.png 
http://ultraimg.com/images/7OlFx.png 
http://ultraimg.com/images/rTbvh.png

----------------------------------------------------------------------------------------------------


Encoded using revolutionary 10bit encoding, which enables us to provide you more crispier 
and sharper images at small sizes, just make sure you follow our instructions without a fault.
Recommend to you to use latest version of VLC player. Install K-Lite Codec Pack or shark007 codecs
in case of any kind of problem in playback (For non-VLC Media Player users). Alternatively, install
Core AVC codecs, the fastest decoder that there is coupled with Community Center Codec Pack and play
on Windows Media Player Classic. Check sample to be sure.
Enjoy!

Encoder Notes:Looking For Early Access To Anything You Can Provide DVDScr, R5, DVDR, BluRay, Direct
Audio, Music Releases and Seedboxes. We require dedicated servers, so as to do more 
and fast releases of movies.
If You Got anything to offer please contact us at "contact@p2pdl.com".

Face book Fan Page:   
http://fbl.me/BC